<?xml version="1.0" encoding="utf-8"?>
<svg id="svg8" width="1702.4pt" height="1319.2pt" version="1.1" viewBox="0 0 600.57 465.39" xmlns="http://www.w3.org/2000/svg">
  <g id="layer1" transform="translate(1063 472.1)" clip-rule="evenodd" fill-rule="evenodd" stroke-width="3.4316">
    <path id="path54" d="m-742.07-472.1c-1.1082 0.0268-2.1267 0.5527-2.8432 1.9859-24.16 40.291-40.278 78.404-57.445 120.19-31.372 5.7033-63.557 11.002-94.932 17.927-6.1116 1.63-13.037 2.0387-17.518 6.5169-3.6649 4.4816-4.8864 11.407-2.8515 16.705 0.80985 2.4433 4.07 3.6646 6.5133 5.2911 18.335 4.89 35.04 11.815 52.966 17.93 9.78 4.8866 20.782 7.7417 29.742 13.853-6.6133 22.89-11.815 41.489-16.702 62.743-1.2216 3.6649-0.40838 8.1502 2.4433 10.189 2.4433 2.8482 6.9283 3.2563 10.185 2.0381 19.242-16.091 37.84-32.651 57.445-46.45l2.0381-0.40825c32.998 19.553 65.598 41.152 96.963 63.968 11.005 1.63 21.193-4.8934 26.488-14.262 1.63-5.7033-1.6299-9.78-3.6649-14.663-14.67-28.928-28.115-58.67-37.078-90.045 8.9599-6.9284 19.965-10.593 29.337-16.705 12.22-9.3717 33.001-11.41 35.85-29.334 0-4.4817-0.81176-8.8379-3.6649-11.815-1.3969-1.4574-5.703-2.0381-5.703-2.0381l-71.298-0.81701-2.0387-0.81339c-4.0767-15.483-6.5202-31.375-9.3684-47.26-0.81672-6.9284-1.6301-13.853-4.0768-19.965-0.40836-1.63-2.4467-2.8516-3.6649-3.6649-6.1116-2.4433-11.815 1.2214-16.3 4.4814-10.188 6.1116-15.892 17.113-15.075 29.741 2.0384 13.445 6.52 26.89 7.7417 40.335l-28.928 3.6685c-3.26 0-6.925 1.2216-9.7767 0 13.445-37.483 32.169-73.112 49.703-107.97 1.638-3.2562 3.5693-5.7049 1.2284-8.9664-1.274-0.76138-3.5024-2.3222-5.4922-2.39-0.0745-3e-3 -0.14894-3e-3 -0.2227-1e-3zm60.641 134.54c6.6146 8e-3 13.391 0.26509 20.036 0.26509-6.52 4.4851-13.445 7.3365-20.377 11.001-4.4782 3.26-9.3683 6.1116-14.663 7.7416-2.4467-4.89-3.2564-11.407-5.2948-16.705 1.2216-1.63 3.2564-1.6299 5.2948-1.6299 4.8117-0.53447 9.8586-0.67936 15.003-0.67334zm-60.629 3.93 1.218 1.6299c3.2566 11.815 6.932 23.63 10.189 35.037-9.7801 6.9249-18.747 13.853-29.337 20.37-14.667-8.1466-30.15-15.48-44.816-23.222v-2.8479c3.26-8.15 5.2949-16.705 8.9633-24.447 17.518-2.8516 35.853-4.4816 53.783-6.52zm-70.896 9.7798 0.40825 1.2216c-0.81327 5.7033-3.26 10.593-5.2984 15.892l-1.2216 0.40876c-9.3716-4.0767-19.556-7.3336-29.333-11.002 10.998-3.26 23.63-4.4816 35.445-6.52zm88.415 46.042 1.218 0.40515c4.4851 11.002 9.3684 22.408 13.445 33.41-11.407-6.1116-21.595-14.667-32.593-22 5.7033-4.0767 11.407-8.5548 17.93-11.815zm-91.267 11.812c8.15 2.8516 15.889 7.7414 22.814 12.223 0.50666 1.7731-3.8945 5.823-4.887 6.52-9.78 7.7417-19.965 16.297-29.336 22.817 2.4433-13.853 6.928-28.111 11.41-41.56z"/>
    <path id="path58" d=""/>
  </g>
</svg>